<svg width="16" height="16" viewBox="0 0 16 16" fill="none" xmlns="http://www.w3.org/2000/svg">
<path d="M12.0004 2.3999H4.00039C3.11673 2.3999 2.40039 3.11625 2.40039 3.9999V11.9999C2.40039 12.8836 3.11673 13.5999 4.00039 13.5999H12.0004C12.884 13.5999 13.6004 12.8836 13.6004 11.9999V3.9999C13.6004 3.11625 12.884 2.3999 12.0004 2.3999Z" stroke="black" stroke-width="0.9"/>
<path d="M7.59961 9.6001C8.70418 9.6001 9.59961 8.70467 9.59961 7.6001C9.59961 6.49553 8.70418 5.6001 7.59961 5.6001C6.49504 5.6001 5.59961 6.49553 5.59961 7.6001C5.59961 8.70467 6.49504 9.6001 7.59961 9.6001Z" stroke="black" stroke-width="0.9"/>
<path d="M10 10L11 11" stroke="black" stroke-width="0.9" stroke-linecap="round"/>
</svg>
