<svg width="16" height="16" viewBox="0 0 16 16" fill="none" xmlns="http://www.w3.org/2000/svg">
<path d="M7.05167 1.50049C5.99526 1.52317 5.14705 2.38605 5.14705 3.44605V3.86967L3.71973 3.8697C2.63188 3.8697 1.75 4.75111 1.75 5.83839V7.98846H3.20837C3.81832 7.98846 4.31278 8.48266 4.31278 9.09228C4.31278 9.70189 3.81832 10.1961 3.20837 10.1961H1.75V12.4217C1.75 13.509 2.63188 14.3904 3.71973 14.3904H5.89403V13.0315C5.89403 12.411 6.39729 11.908 7.01809 11.908C7.63889 11.908 8.14214 12.411 8.14214 13.0315V14.3904H10.3415L10.374 14.3901C11.4469 14.3727 12.3112 13.4981 12.3112 12.4217L12.3112 11.0301L12.7722 11.0301C13.8121 11.0301 14.6552 10.1875 14.6552 9.14815L14.6549 9.11704C14.6383 8.09201 13.8017 7.26617 12.7722 7.26617L12.3112 7.26614L12.3112 5.83839L12.3109 5.80583C12.2935 4.73357 11.4184 3.8697 10.3415 3.8697L8.98287 3.86967L8.99229 3.43939C8.99266 3.42219 8.99281 3.40498 8.99272 3.38777C8.98711 2.33963 8.13244 1.49446 7.08374 1.50003L7.05167 1.50049ZM7.08845 2.38254C7.6495 2.37957 8.10675 2.83172 8.10973 3.39248C8.10979 3.40168 8.10972 3.41089 8.10951 3.42009L8.08036 4.75222H10.3415C10.9417 4.75222 11.4282 5.23851 11.4282 5.83837V8.14869H12.7722C13.3245 8.14869 13.7722 8.59616 13.7722 9.14815C13.7722 9.70015 13.3245 10.1476 12.7722 10.1476H11.4282V12.4217L11.4281 12.4397C11.4185 13.0313 10.9357 13.5079 10.3415 13.5079H9.02511L9.02513 13.0315C9.02513 11.9236 8.12655 11.0255 7.01809 11.0255L6.9849 11.0257C5.89176 11.0435 5.01105 11.9347 5.01105 13.0315L5.01103 13.5079H3.71973L3.70176 13.5077C3.10985 13.4981 2.63298 13.0156 2.63298 12.4217V11.0786H3.20837C4.30597 11.0786 5.19577 10.1893 5.19577 9.09229L5.1955 9.05944C5.17794 7.97756 4.295 7.10594 3.20837 7.10594L2.63298 7.10593V5.83839C2.63298 5.23851 3.11954 4.75222 3.71973 4.75222H6.03005V3.44605C6.03005 2.8609 6.503 2.38567 7.08845 2.38254Z" fill="#090C14"/>
</svg>
