<svg width="16" height="16" viewBox="0 0 16 16" fill="none" xmlns="http://www.w3.org/2000/svg">
<path d="M5.2036 9.98595L8.0801 8.31395L10.906 9.92325C10.977 9.96335 11.0571 9.98442 11.1387 9.98442C11.2202 9.98442 11.3003 9.96335 11.3713 9.92325C11.4382 9.88278 11.4939 9.82608 11.5331 9.7584C11.5723 9.69072 11.5939 9.61425 11.5957 9.53605C11.5938 9.45695 11.5714 9.3797 11.5307 9.31184C11.49 9.24397 11.4325 9.18782 11.3636 9.14885L8.4827 7.50105V3.98466C8.48575 3.92216 8.47608 3.8597 8.45427 3.80106C8.43246 3.74242 8.39896 3.68882 8.35581 3.64351C8.31266 3.5982 8.26076 3.56213 8.20325 3.53748C8.14574 3.51283 8.08382 3.50012 8.02125 3.50012C7.95868 3.50012 7.89677 3.51283 7.83926 3.53748C7.78175 3.56213 7.72985 3.5982 7.6867 3.64351C7.64355 3.68882 7.61005 3.74242 7.58824 3.80106C7.56642 3.8597 7.55675 3.92216 7.5598 3.98466V7.51205L4.7537 9.15215C4.68391 9.17205 4.61947 9.20736 4.56513 9.25547C4.51079 9.30358 4.46794 9.36327 4.43974 9.43015C4.41154 9.49702 4.3987 9.56937 4.40217 9.64186C4.40564 9.71435 4.42533 9.78514 4.4598 9.84902C4.49426 9.91289 4.54261 9.96821 4.6013 10.0109C4.65999 10.0536 4.7275 10.0826 4.79888 10.0957C4.87026 10.1089 4.94367 10.1058 5.01372 10.0868C5.08376 10.0678 5.14865 10.0334 5.2036 9.98595Z" fill="#090C14"/>
<path d="M2.69583 11.7216L7.34773 14.4353C7.56182 14.5645 7.80715 14.6328 8.05723 14.6328C8.30731 14.6328 8.55264 14.5645 8.76673 14.4353L13.3823 11.7216C13.5891 11.5949 13.7598 11.4172 13.8779 11.2055C13.996 10.9937 14.0575 10.7551 14.0566 10.5127V4.74865C14.0566 4.50206 13.9912 4.25989 13.8672 4.04677C13.7431 3.83365 13.5648 3.65719 13.3504 3.53535L8.69963 0.883253C8.49161 0.76315 8.25563 0.699923 8.01543 0.699923C7.77523 0.699923 7.53925 0.76315 7.33123 0.883253L2.67933 3.53425C2.46526 3.65655 2.28738 3.83332 2.16373 4.04661C2.04008 4.2599 1.97508 4.50211 1.97533 4.74865V10.5127C1.97571 10.7567 2.03936 10.9964 2.16004 11.2085C2.28073 11.4205 2.45434 11.5977 2.66393 11.7227H2.69583V11.7216ZM2.91583 4.74425C2.91969 4.66547 2.94301 4.58887 2.9837 4.52131C3.0244 4.45374 3.0812 4.39731 3.14903 4.35705L7.80093 1.70605C7.86995 1.66432 7.94907 1.64226 8.02973 1.64226C8.11039 1.64226 8.18951 1.66432 8.25853 1.70605L12.8939 4.34055C12.9628 4.37952 13.0204 4.43568 13.0611 4.50354C13.1017 4.5714 13.1241 4.64865 13.126 4.72775V10.5127C13.1261 10.5895 13.1071 10.6651 13.0706 10.7327C13.0341 10.8003 12.9813 10.8578 12.917 10.8999L8.26403 13.6136C8.19302 13.6553 8.11212 13.6774 8.02973 13.6774C7.94734 13.6774 7.86644 13.6553 7.79543 13.6136L3.14353 10.8999C3.07578 10.8599 3.01925 10.8034 2.97924 10.7357C2.93923 10.668 2.91703 10.5913 2.91473 10.5127V4.74425H2.91583Z" fill="#090C14"/>
</svg>
