<svg width="16" height="16" viewBox="0 0 16 16" fill="none" xmlns="http://www.w3.org/2000/svg">
<path d="M12.0004 2.3999H4.00039C3.11673 2.3999 2.40039 3.11625 2.40039 3.9999V11.9999C2.40039 12.8836 3.11673 13.5999 4.00039 13.5999H12.0004C12.884 13.5999 13.6004 12.8836 13.6004 11.9999V3.9999C13.6004 3.11625 12.884 2.3999 12.0004 2.3999Z" stroke="black" stroke-width="0.9"/>
<path d="M8.00039 8.39995C8.88405 8.39995 9.60039 7.68361 9.60039 6.79995C9.60039 5.9163 8.88405 5.19995 8.00039 5.19995C7.11673 5.19995 6.40039 5.9163 6.40039 6.79995C6.40039 7.68361 7.11673 8.39995 8.00039 8.39995Z" stroke="black" stroke-width="0.9"/>
<path d="M5.2002 12.4001C5.2002 10.8001 6.4562 9.6001 8.0002 9.6001C9.5442 9.6001 10.8002 10.8001 10.8002 12.4001" stroke="black" stroke-width="0.9" stroke-linecap="round"/>
</svg>
