<svg width="16" height="16" viewBox="0 0 16 16" fill="none" xmlns="http://www.w3.org/2000/svg">
<path d="M12.5918 10.1619C12.6218 10.0979 12.7122 10.0979 12.7422 10.1619L13.3447 11.4519C13.4551 11.6884 13.6453 11.8786 13.8818 11.989L15.1719 12.5916C15.2358 12.6215 15.2358 12.712 15.1719 12.7419L13.8818 13.3445C13.6453 13.4549 13.4551 13.6451 13.3447 13.8816L12.7422 15.1716C12.7122 15.2356 12.6218 15.2356 12.5918 15.1716L11.9893 13.8816C11.8789 13.6451 11.6886 13.4549 11.4521 13.3445L10.1621 12.7419C10.0982 12.712 10.0982 12.6215 10.1621 12.5916L11.4521 11.989C11.6886 11.8786 11.8789 11.6884 11.9893 11.4519L12.5918 10.1619ZM12.8887 1.99976C13.5022 1.99976 13.9998 2.49759 14 3.11108V9.25073C13.7358 9.14756 13.4569 9.07445 13.167 9.03491V3.11108C13.1668 2.95782 13.042 2.83276 12.8887 2.83276H3.11133C2.95817 2.83294 2.83319 2.95793 2.83301 3.11108V12.8884C2.83301 13.0417 2.95807 13.1666 3.11133 13.1667H9.03516C9.07469 13.4566 9.14781 13.7356 9.25098 13.9998H3.11133L2.99707 13.9939C2.43717 13.9366 2 13.4635 2 12.8884V3.11108C2.00017 2.53619 2.43724 2.06284 2.99707 2.00562L3.11133 1.99976H12.8887ZM5.22266 9.16675C5.37587 9.16681 5.49976 9.29092 5.5 9.44409V9.8894C5.49977 10.0426 5.37587 10.1667 5.22266 10.1667H4.77832C4.62505 10.1667 4.50023 10.0426 4.5 9.8894V9.44409C4.50024 9.29088 4.62505 9.16675 4.77832 9.16675H5.22266ZM9.55566 9.16675C9.70893 9.16675 9.83375 9.29092 9.83398 9.44409V9.8894C9.83375 10.0426 9.70893 10.1667 9.55566 10.1667H6.77832C6.62505 10.1667 6.50023 10.0426 6.5 9.8894V9.44409C6.50024 9.29088 6.62505 9.16675 6.77832 9.16675H9.55566ZM5.22266 5.83374C5.37598 5.8338 5.49994 5.95776 5.5 6.11108V6.55542C5.5 6.7088 5.37602 6.83368 5.22266 6.83374H4.77832C4.62491 6.83374 4.5 6.70883 4.5 6.55542V6.11108C4.50006 5.95772 4.62495 5.83374 4.77832 5.83374H5.22266ZM11.2227 5.83374C11.376 5.8338 11.4999 5.95776 11.5 6.11108V6.55542C11.5 6.7088 11.376 6.83368 11.2227 6.83374H6.77832C6.62491 6.83374 6.5 6.70883 6.5 6.55542V6.11108C6.50006 5.95772 6.62495 5.83374 6.77832 5.83374H11.2227Z" fill="#090C14"/>
</svg>
